<svg version="1.1" xmlns="http://www.w3.org/2000/svg" width="500" height="500">
<path d="M0 0 C2.38038362 0.00560428 4.76077072 0.00987044 7.14115906 0.01286316 C13.36686983 0.02424637 19.5923663 0.05365676 25.81799316 0.0869751 C32.18657534 0.11781741 38.55519258 0.13139861 44.92382812 0.14648438 C57.39071848 0.17853323 69.8574507 0.22964971 82.32421875 0.29296875 C80.45328721 4.37793626 77.70451457 7.13805103 74.51171875 10.23046875 C73.72958008 10.99907227 73.72958008 10.99907227 72.93164062 11.78320312 C71.89653148 12.80022048 70.85928762 13.81507013 69.81982422 14.82763672 C68.39795479 16.22072525 66.99527456 17.63332018 65.59375 19.046875 C63.29171161 21.32514019 60.85152027 23.27112754 58.32421875 25.29296875 C56.63850635 26.94036951 54.96790015 28.60362953 53.32421875 30.29296875 C51.47204762 32.14513988 48.42082852 31.43739779 45.94360352 31.45068359 C44.94335396 31.45830467 44.94335396 31.45830467 43.92289734 31.46607971 C42.46875398 31.47680859 41.01459384 31.48541882 39.56042671 31.49219894 C37.25137345 31.50397896 34.942508 31.52343495 32.63352966 31.5453186 C26.06605393 31.60692445 19.4985915 31.66075534 12.9309082 31.69433594 C8.91602843 31.71541784 4.90148136 31.75084095 0.88679314 31.79509354 C-0.63720816 31.80916252 -2.16126845 31.81795519 -3.68533134 31.82114792 C-12.11319053 31.84065131 -19.73509642 32.22677566 -27.67578125 35.29296875 C-28.66578125 35.62296875 -29.65578125 35.95296875 -30.67578125 36.29296875 C-30.67578125 36.95296875 -30.67578125 37.61296875 -30.67578125 38.29296875 C-31.33578125 38.29296875 -31.99578125 38.29296875 -32.67578125 38.29296875 C-32.96453125 39.01484375 -33.25328125 39.73671875 -33.55078125 40.48046875 C-34.67578125 43.29296875 -34.67578125 43.29296875 -35.80078125 45.48046875 C-37.95142936 52.39326626 -37.15920945 58.88861236 -33.9453125 65.31640625 C-30.93534325 70.00269684 -26.89191229 72.47546528 -21.67578125 74.29296875 C-5.13833288 77.14602688 21.78209161 80.52132002 36.16467285 70.46043396 C42.53003686 65.2618541 47.65530054 58.92210804 52.27099609 52.15551758 C54.40216003 49.18430507 56.73153637 46.87128155 59.32421875 44.29296875 C60.63864067 42.76732853 61.94002866 41.23042041 63.23266602 39.6862793 C68.30721185 33.65008574 73.52641343 27.76287646 78.88671875 21.98046875 C79.36470413 21.46481857 79.84268951 20.9491684 80.3351593 20.41789246 C91.52546727 8.45343658 101.85581348 -1.85831804 119.10816956 -2.77290344 C128.61837134 -2.82581357 138.02859459 -1.64984659 147.32421875 0.29296875 C145.92193811 3.46395203 144.26816096 5.59667652 141.81881714 8.03887939 C141.09245056 8.7679953 140.36608398 9.49711121 139.6177063 10.24832153 C138.82073334 11.03810394 138.02376038 11.82788635 137.20263672 12.64160156 C136.3635376 13.48099274 135.52443848 14.32038391 134.65991211 15.18521118 C132.36204108 17.48192847 130.05979618 19.77414971 127.75552893 22.06444645 C125.34696088 24.46050343 122.94406359 26.86223363 120.54055786 29.2633667 C115.99012919 33.80758172 111.43462676 38.34667485 106.87727749 42.88394809 C101.68837764 48.05048541 96.5051625 53.22270976 91.32241607 58.39541864 C80.66266172 69.03427358 69.9957927 79.66596882 59.32421875 90.29296875 C59.73414063 90.751875 60.1440625 91.21078125 60.56640625 91.68359375 C61.10523438 92.2971875 61.6440625 92.91078125 62.19921875 93.54296875 C62.73289062 94.14625 63.2665625 94.74953125 63.81640625 95.37109375 C65.32421875 97.29296875 65.32421875 97.29296875 66.39453125 99.46484375 C67.18741667 101.47229052 67.18741667 101.47229052 69.32421875 102.29296875 C71.85267403 103.55719639 72.08844639 104.82142403 73.32421875 107.29296875 C74.64942378 107.97565013 75.98234057 108.64367285 77.32421875 109.29296875 C77.65421875 110.28296875 77.98421875 111.27296875 78.32421875 112.29296875 C79.65514539 112.96442724 80.98904889 113.62998785 82.32421875 114.29296875 C84.12322111 115.90661935 85.87036665 117.5791526 87.57421875 119.29296875 C88.91226563 120.62328125 88.91226563 120.62328125 90.27734375 121.98046875 C92.32421875 124.29296875 92.32421875 124.29296875 92.32421875 126.29296875 C92.94296875 126.54046875 93.56171875 126.78796875 94.19921875 127.04296875 C96.72780502 128.53037244 97.04260879 129.72974884 98.32421875 132.29296875 C98.98421875 132.62296875 99.64421875 132.95296875 100.32421875 133.29296875 C102.85267403 134.55719639 103.08844639 135.82142403 104.32421875 138.29296875 C104.906875 138.57140625 105.48953125 138.84984375 106.08984375 139.13671875 C108.93404058 140.60854089 110.82075443 142.52477591 113.07421875 144.79296875 C114.27304687 145.9840625 114.27304687 145.9840625 115.49609375 147.19921875 C117.32421875 149.29296875 117.32421875 149.29296875 117.32421875 151.29296875 C117.906875 151.55078125 118.48953125 151.80859375 119.08984375 152.07421875 C121.50450905 153.39130892 123.14162052 154.84385259 125.07421875 156.79296875 C125.6878125 157.40140625 126.30140625 158.00984375 126.93359375 158.63671875 C128.32421875 160.29296875 128.32421875 160.29296875 128.32421875 162.29296875 C128.8759375 162.51984375 129.42765625 162.74671875 129.99609375 162.98046875 C133.01114292 164.68022801 135.13652244 166.84101691 137.57421875 169.29296875 C138.91226563 170.62328125 138.91226563 170.62328125 140.27734375 171.98046875 C142.32421875 174.29296875 142.32421875 174.29296875 142.32421875 176.29296875 C143.28328125 176.66421875 143.28328125 176.66421875 144.26171875 177.04296875 C146.32421875 178.29296875 146.32421875 178.29296875 146.953125 180.37109375 C147.13681641 181.32242188 147.13681641 181.32242188 147.32421875 182.29296875 C132.66069128 185.53172265 114.61737788 188.6063022 101.15917969 180.35168457 C86.9231207 169.70599487 75.12067269 155.71422105 63.6809082 142.21850586 C60.38325057 138.36777047 56.90294721 135.0876522 53.02659607 131.83442688 C50.67524121 129.70533657 49.09106475 127.29045723 47.41015625 124.61328125 C41.59905329 116.60930924 35.46528194 108.89069761 25.3807373 106.63439941 C11.50363742 104.70374992 -2.83701766 105.31335789 -16.78421021 106.19827271 C-30.59197235 106.93184503 -41.71951867 101.96056814 -52.48828125 93.48046875 C-62.00055293 84.78022026 -68.4326677 72.25169456 -69.01171875 59.375 C-69.31134323 41.99023124 -66.21988451 28.17624646 -53.98828125 15.10546875 C-37.56334438 -0.24552994 -21.42714004 -0.14890878 0 0 Z " fill="#010101" transform="translate(210.67578125,158.70703125)"/>
<path d="M0 0 C0.43570313 0.37511719 0.87140625 0.75023437 1.3203125 1.13671875 C2.21363281 1.90435547 2.21363281 1.90435547 3.125 2.6875 C3.76308594 3.23664063 4.40117187 3.78578125 5.05859375 4.3515625 C6.74690235 5.78509616 8.46083894 7.17587194 10.1875 8.5625 C12.8613211 10.87981162 14.84034958 13.2133543 17 16 C18.64783606 17.68528688 20.31002677 19.35697047 22 21 C19.10469783 27.9487252 11.50408672 32.1717761 4.8984375 35.2265625 C-3.92907884 38.82295805 -12.85792637 39.14999499 -22.23974609 39.12939453 C-23.23256592 39.13114685 -24.22538574 39.13289917 -25.24829102 39.13470459 C-28.50669132 39.13908099 -31.76503672 39.13620136 -35.0234375 39.1328125 C-37.29407766 39.13348643 -39.56471775 39.1344572 -41.83535767 39.13571167 C-46.58116344 39.13718265 -51.32695033 39.13505214 -56.07275391 39.13037109 C-62.16611406 39.12465461 -68.25943035 39.1279687 -74.35278893 39.13394356 C-79.03492568 39.13754871 -83.71705194 39.13641114 -88.399189 39.13381577 C-90.647152 39.13314738 -92.89511595 39.13397185 -95.14307785 39.13629532 C-98.27428484 39.13882317 -101.40541952 39.13498023 -104.53662109 39.12939453 C-105.47063751 39.13141876 -106.40465393 39.13344299 -107.36697388 39.13552856 C-108.21640564 39.13270874 -109.0658374 39.12988892 -109.94100952 39.12698364 C-110.68095846 39.12660662 -111.4209074 39.12622959 -112.18327904 39.12584114 C-114 39 -114 39 -116 38 C-115.67 37.01 -115.34 36.02 -115 35 C-114.92867057 33.03112942 -114.91595474 31.05988818 -114.9375 29.08984375 C-114.94523438 27.93548828 -114.95296875 26.78113281 -114.9609375 25.59179688 C-114.97382813 24.38587891 -114.98671875 23.17996094 -115 21.9375 C-115.02543073 19.55082581 -115.04649046 17.16409973 -115.0625 14.77734375 C-115.07410156 13.71765381 -115.08570313 12.65796387 -115.09765625 11.56616211 C-115 9 -115 9 -114 7 C-112.09772141 6.99786247 -112.09772141 6.99786247 -110.15701294 6.99568176 C-98.18101087 6.97898189 -86.20534729 6.93611654 -74.22952461 6.86790943 C-68.07321465 6.83368023 -61.9171518 6.8085357 -55.76074219 6.80444336 C-49.81475748 6.80015182 -43.86932981 6.77161705 -37.92351913 6.72656822 C-35.65987269 6.71362074 -33.39615948 6.70927573 -31.13248062 6.71384621 C-27.95115937 6.71877154 -24.77145413 6.69257229 -21.59033203 6.65942383 C-20.19957207 6.67236229 -20.19957207 6.67236229 -18.78071594 6.68556213 C-12.12089862 6.56992007 -4.90223469 4.90223469 0 0 Z " fill="#010100" transform="translate(256,302)"/>
<path d="M0 0 C2.64 0 5.28 0 8 0 C8 0.33 8 0.66 8 1 C5.36 1 2.72 1 0 1 C0 0.67 0 0.34 0 0 Z " fill="#000000" transform="translate(230,157)"/>
<path d="" fill="#00FF00" transform="translate(0,0)"/>
</svg>